<?xml version="1.0" encoding="utf-8"?>
<!-- Generator: Adobe Illustrator 16.0.3, SVG Export Plug-In . SVG Version: 6.00 Build 0)  -->
<!DOCTYPE svg PUBLIC "-//W3C//DTD SVG 1.1//EN" "http://www.w3.org/Graphics/SVG/1.1/DTD/svg11.dtd">
<svg version="1.1" id="Capa_1" xmlns="http://www.w3.org/2000/svg" xmlns:xlink="http://www.w3.org/1999/xlink" x="0px" y="0px"
	 width="230.989px" height="170.991px" viewBox="0 0 230.989 170.991" enable-background="new 0 0 230.989 170.991"
	 xml:space="preserve">
<g>
	<g>
		<path fill="#82273E" d="M148.978,65.534c0,19.511-15.816,35.327-35.327,35.327c-19.51,0-35.327-15.816-35.327-35.327
			s15.816-35.327,35.327-35.327C133.162,30.207,148.978,46.023,148.978,65.534z M113.651,37.752
			c-15.343,0-27.782,12.438-27.782,27.782c0,15.343,12.438,27.781,27.782,27.781c15.344,0,27.782-12.438,27.782-27.781
			C141.433,50.19,128.995,37.752,113.651,37.752z"/>
		<linearGradient id="SVGID_1_" gradientUnits="userSpaceOnUse" x1="115.7271" y1="29.8145" x2="115.7271" y2="102.7705">
			<stop  offset="0" style="stop-color:#C76A5D"/>
			<stop  offset="0.2512" style="stop-color:#C64051"/>
		</linearGradient>
		<path fill="url(#SVGID_1_)" d="M152.205,66.292c0,20.146-16.33,36.478-36.477,36.478c-20.147,0-36.479-16.332-36.479-36.478
			c0-20.146,16.332-36.478,36.479-36.478C135.875,29.814,152.205,46.146,152.205,66.292z M115.728,37.606
			c-15.844,0-28.687,12.844-28.687,28.687s12.843,28.687,28.687,28.687c15.842,0,28.686-12.844,28.686-28.687
			S131.57,37.606,115.728,37.606z"/>
	</g>
	<text transform="matrix(1 0 0 1 42.1401 135.1772)" fill="#444444" font-family="'VarelaRound'" font-size="45">Orugal</text>
</g>
</svg>
